<svg xmlns="http://www.w3.org/2000/svg" viewBox="0 0 800 600" width="800" height="600">
  <!-- Background -->
  <rect width="100%" height="100%" fill="#f8f9fa" rx="15" ry="15"/>
  
  <!-- Calendar frame -->
  <rect x="100" y="100" width="600" height="400" rx="10" ry="10" fill="#ffffff" stroke="#7922FF" stroke-width="3"/>
  
  <!-- Calendar header -->
  <rect x="100" y="100" width="600" height="60" rx="10" ry="10" fill="#7922FF"/>
  <text x="400" y="140" font-family="Arial" font-size="24" fill="white" text-anchor="middle" dominant-baseline="middle">July 2023</text>
  
  <!-- Day headings -->
  <text x="150" y="190" font-family="Arial" font-size="16" fill="#333" text-anchor="middle">Mon</text>
  <text x="235" y="190" font-family="Arial" font-size="16" fill="#333" text-anchor="middle">Tue</text>
  <text x="320" y="190" font-family="Arial" font-size="16" fill="#333" text-anchor="middle">Wed</text>
  <text x="405" y="190" font-family="Arial" font-size="16" fill="#333" text-anchor="middle">Thu</text>
  <text x="490" y="190" font-family="Arial" font-size="16" fill="#333" text-anchor="middle">Fri</text>
  <text x="575" y="190" font-family="Arial" font-size="16" fill="#333" text-anchor="middle">Sat</text>
  <text x="660" y="190" font-family="Arial" font-size="16" fill="#333" text-anchor="middle">Sun</text>
  
  <!-- Calendar grid -->
  <line x1="100" y1="200" x2="700" y2="200" stroke="#e9ecef" stroke-width="1.5"/>
  <line x1="190" y1="160" x2="190" y2="500" stroke="#e9ecef" stroke-width="1.5"/>
  <line x1="275" y1="160" x2="275" y2="500" stroke="#e9ecef" stroke-width="1.5"/>
  <line x1="360" y1="160" x2="360" y2="500" stroke="#e9ecef" stroke-width="1.5"/>
  <line x1="445" y1="160" x2="445" y2="500" stroke="#e9ecef" stroke-width="1.5"/>
  <line x1="530" y1="160" x2="530" y2="500" stroke="#e9ecef" stroke-width="1.5"/>
  <line x1="615" y1="160" x2="615" y2="500" stroke="#e9ecef" stroke-width="1.5"/>
  <line x1="100" y1="245" x2="700" y2="245" stroke="#e9ecef" stroke-width="1.5"/>
  <line x1="100" y1="290" x2="700" y2="290" stroke="#e9ecef" stroke-width="1.5"/>
  <line x1="100" y1="335" x2="700" y2="335" stroke="#e9ecef" stroke-width="1.5"/>
  <line x1="100" y1="380" x2="700" y2="380" stroke="#e9ecef" stroke-width="1.5"/>
  <line x1="100" y1="425" x2="700" y2="425" stroke="#e9ecef" stroke-width="1.5"/>
  <line x1="100" y1="470" x2="700" y2="470" stroke="#e9ecef" stroke-width="1.5"/>
  
  <!-- Dates -->
  <!-- Week 1 -->
  <text x="150" y="225" font-family="Arial" font-size="18" fill="#666" text-anchor="middle">26</text>
  <text x="235" y="225" font-family="Arial" font-size="18" fill="#666" text-anchor="middle">27</text>
  <text x="320" y="225" font-family="Arial" font-size="18" fill="#666" text-anchor="middle">28</text>
  <text x="405" y="225" font-family="Arial" font-size="18" fill="#666" text-anchor="middle">29</text>
  <text x="490" y="225" font-family="Arial" font-size="18" fill="#666" text-anchor="middle">30</text>
  <text x="575" y="225" font-family="Arial" font-size="18" fill="#333" text-anchor="middle">1</text>
  <text x="660" y="225" font-family="Arial" font-size="18" fill="#333" text-anchor="middle">2</text>
  
  <!-- Week 2 -->
  <text x="150" y="270" font-family="Arial" font-size="18" fill="#333" text-anchor="middle">3</text>
  <text x="235" y="270" font-family="Arial" font-size="18" fill="#333" text-anchor="middle">4</text>
  <text x="320" y="270" font-family="Arial" font-size="18" fill="#333" text-anchor="middle">5</text>
  <text x="405" y="270" font-family="Arial" font-size="18" fill="#333" text-anchor="middle">6</text>
  <text x="490" y="270" font-family="Arial" font-size="18" fill="#333" text-anchor="middle">7</text>
  <text x="575" y="270" font-family="Arial" font-size="18" fill="#333" text-anchor="middle">8</text>
  <text x="660" y="270" font-family="Arial" font-size="18" fill="#333" text-anchor="middle">9</text>
  
  <!-- Week 3 -->
  <text x="150" y="315" font-family="Arial" font-size="18" fill="#333" text-anchor="middle">10</text>
  <text x="235" y="315" font-family="Arial" font-size="18" fill="#333" text-anchor="middle">11</text>
  <text x="320" y="315" font-family="Arial" font-size="18" fill="#333" text-anchor="middle">12</text>
  
  <!-- Today's date (highlighted) -->
  <circle cx="405" cy="315" r="20" fill="#7922FF" opacity="0.2"/>
  <text x="405" y="315" font-family="Arial" font-size="18" fill="#7922FF" font-weight="bold" text-anchor="middle">13</text>
  
  <text x="490" y="315" font-family="Arial" font-size="18" fill="#333" text-anchor="middle">14</text>
  <text x="575" y="315" font-family="Arial" font-size="18" fill="#333" text-anchor="middle">15</text>
  <text x="660" y="315" font-family="Arial" font-size="18" fill="#333" text-anchor="middle">16</text>
  
  <!-- Week 4 -->
  <text x="150" y="360" font-family="Arial" font-size="18" fill="#333" text-anchor="middle">17</text>
  <text x="235" y="360" font-family="Arial" font-size="18" fill="#333" text-anchor="middle">18</text>
  <text x="320" y="360" font-family="Arial" font-size="18" fill="#333" text-anchor="middle">19</text>
  <text x="405" y="360" font-family="Arial" font-size="18" fill="#333" text-anchor="middle">20</text>
  <text x="490" y="360" font-family="Arial" font-size="18" fill="#333" text-anchor="middle">21</text>
  <text x="575" y="360" font-family="Arial" font-size="18" fill="#333" text-anchor="middle">22</text>
  <text x="660" y="360" font-family="Arial" font-size="18" fill="#333" text-anchor="middle">23</text>
  
  <!-- Week 5 -->
  <text x="150" y="405" font-family="Arial" font-size="18" fill="#333" text-anchor="middle">24</text>
  <text x="235" y="405" font-family="Arial" font-size="18" fill="#333" text-anchor="middle">25</text>
  <text x="320" y="405" font-family="Arial" font-size="18" fill="#333" text-anchor="middle">26</text>
  <text x="405" y="405" font-family="Arial" font-size="18" fill="#333" text-anchor="middle">27</text>
  <text x="490" y="405" font-family="Arial" font-size="18" fill="#333" text-anchor="middle">28</text>
  <text x="575" y="405" font-family="Arial" font-size="18" fill="#333" text-anchor="middle">29</text>
  <text x="660" y="405" font-family="Arial" font-size="18" fill="#333" text-anchor="middle">30</text>
  
  <!-- Week 6 -->
  <text x="150" y="450" font-family="Arial" font-size="18" fill="#333" text-anchor="middle">31</text>
  <text x="235" y="450" font-family="Arial" font-size="18" fill="#666" text-anchor="middle">1</text>
  <text x="320" y="450" font-family="Arial" font-size="18" fill="#666" text-anchor="middle">2</text>
  <text x="405" y="450" font-family="Arial" font-size="18" fill="#666" text-anchor="middle">3</text>
  <text x="490" y="450" font-family="Arial" font-size="18" fill="#666" text-anchor="middle">4</text>
  <text x="575" y="450" font-family="Arial" font-size="18" fill="#666" text-anchor="middle">5</text>
  <text x="660" y="450" font-family="Arial" font-size="18" fill="#666" text-anchor="middle">6</text>
  
  <!-- Appointment elements -->
  <!-- Doctor appointment -->
  <rect x="320" y="250" width="125" height="22" rx="4" ry="4" fill="#00A8E8" opacity="0.8"/>
  <text x="355" y="267" font-family="Arial" font-size="12" fill="white" text-anchor="left">Dr. Sharma 9:30</text>
  
  <!-- Salon appointment -->
  <rect x="490" y="335" width="125" height="22" rx="4" ry="4" fill="#7922FF" opacity="0.8"/>
  <text x="525" y="352" font-family="Arial" font-size="12" fill="white" text-anchor="left">Salon 2:00 PM</text>
  
  <!-- Legal appointment -->
  <rect x="150" y="380" width="125" height="22" rx="4" ry="4" fill="#ff6b6b" opacity="0.8"/>
  <text x="185" y="397" font-family="Arial" font-size="12" fill="white" text-anchor="left">Legal 10:00 AM</text>
  
  <!-- Checkmark icons -->
  <circle cx="150" cy="270" r="12" fill="#4caf50" opacity="0.2"/>
  <path d="M145,270 L148,273 L155,266" stroke="#4caf50" stroke-width="2" fill="none"/>
  
  <circle cx="235" cy="270" r="12" fill="#4caf50" opacity="0.2"/>
  <path d="M230,270 L233,273 L240,266" stroke="#4caf50" stroke-width="2" fill="none"/>
  
  <!-- Phone with app overlay -->
  <rect x="520" y="240" width="160" height="320" rx="20" ry="20" fill="#333" stroke="#444" stroke-width="3"/>
  <rect x="535" y="260" width="130" height="280" rx="5" ry="5" fill="#f8f9fa"/>
  
  <!-- App header -->
  <rect x="535" y="260" width="130" height="40" rx="5" ry="5" fill="#7922FF"/>
  <text x="600" y="285" font-family="Arial" font-size="14" fill="white" text-anchor="middle">AppointKaro</text>
  
  <!-- App content -->
  <rect x="545" y="310" width="110" height="40" rx="5" ry="5" fill="white" stroke="#e9ecef" stroke-width="1.5"/>
  <text x="560" y="330" font-family="Arial" font-size="11" fill="#333" text-anchor="left">Dr. Sharma</text>
  <text x="560" y="345" font-family="Arial" font-size="10" fill="#666" text-anchor="left">Today, 9:30 AM</text>
  <circle cx="640" cy="330" r="10" fill="#7922FF" opacity="0.2"/>
  <path d="M635,330 L638,333 L645,326" stroke="#7922FF" stroke-width="1.5" fill="none"/>
  
  <rect x="545" y="360" width="110" height="40" rx="5" ry="5" fill="white" stroke="#e9ecef" stroke-width="1.5"/>
  <text x="560" y="380" font-family="Arial" font-size="11" fill="#333" text-anchor="left">Salon Appointment</text>
  <text x="560" y="395" font-family="Arial" font-size="10" fill="#666" text-anchor="left">Fri, 2:00 PM</text>
  
  <rect x="545" y="410" width="110" height="40" rx="5" ry="5" fill="white" stroke="#e9ecef" stroke-width="1.5"/>
  <text x="560" y="430" font-family="Arial" font-size="11" fill="#333" text-anchor="left">Legal Consultation</text>
  <text x="560" y="445" font-family="Arial" font-size="10" fill="#666" text-anchor="left">Mon, 10:00 AM</text>
  
  <!-- App bottom navigation -->
  <rect x="535" y="500" width="130" height="40" rx="5" ry="5" fill="#f8f9fa" stroke="#e9ecef" stroke-width="1.5"/>
  
  <!-- Nav icons -->
  <circle cx="560" cy="520" r="8" fill="#7922FF"/>
  <text x="560" y="524" font-family="Arial" font-size="12" fill="white" text-anchor="middle">+</text>
  
  <rect x="585" y="515" width="30" height="10" rx="2" ry="2" fill="#666"/>
  
  <circle cx="640" cy="520" r="8" fill="#e9ecef"/>
  <circle cx="640" cy="520" r="4" fill="#666"/>
  
  <!-- Success check animation -->
  <circle cx="380" cy="500" r="30" fill="#4caf50" opacity="0.2">
    <animate attributeName="opacity" values="0.2;0.5;0.2" dur="3s" repeatCount="indefinite"/>
  </circle>
  <path d="M370,500 L377,507 L390,494" stroke="#4caf50" stroke-width="4" fill="none">
    <animate attributeName="stroke-width" values="4;6;4" dur="3s" repeatCount="indefinite"/>
  </path>
  <text x="380" y="545" font-family="Arial" font-size="14" fill="#4caf50" text-anchor="middle">Appointment Confirmed!</text>
</svg>